{
	"patcher" : 	{
		"fileversion" : 1,
		"appversion" : 		{
			"major" : 5,
			"minor" : 1,
			"revision" : 9
		}
,
		"rect" : [ 8.0, 44.0, 1176.0, 730.0 ],
		"bglocked" : 0,
		"defrect" : [ 8.0, 44.0, 1176.0, 730.0 ],
		"openrect" : [ 0.0, 0.0, 0.0, 0.0 ],
		"openinpresentation" : 0,
		"default_fontsize" : 12.0,
		"default_fontface" : 0,
		"default_fontname" : "Arial",
		"gridonopen" : 0,
		"gridsize" : [ 15.0, 15.0 ],
		"gridsnaponopen" : 0,
		"toolbarvisible" : 1,
		"boxanimatetime" : 200,
		"imprint" : 0,
		"enablehscroll" : 1,
		"enablevscroll" : 1,
		"devicewidth" : 0.0,
		"boxes" : [ 			{
				"box" : 				{
					"maxclass" : "newobj",
					"text" : "*~",
					"numoutlets" : 1,
					"outlettype" : [ "signal" ],
					"patching_rect" : [ 315.0, 300.0, 32.5, 20.0 ],
					"id" : "obj-98",
					"fontname" : "Arial",
					"fontsize" : 12.0,
					"numinlets" : 2
				}

			}
, 			{
				"box" : 				{
					"maxclass" : "newobj",
					"text" : "cos~",
					"numoutlets" : 1,
					"outlettype" : [ "signal" ],
					"patching_rect" : [ 420.0, 300.0, 36.0, 20.0 ],
					"id" : "obj-99",
					"fontname" : "Arial",
					"fontsize" : 12.0,
					"numinlets" : 1
				}

			}
, 			{
				"box" : 				{
					"maxclass" : "newobj",
					"text" : "/~ 2",
					"numoutlets" : 1,
					"outlettype" : [ "signal" ],
					"patching_rect" : [ 420.0, 270.0, 32.5, 20.0 ],
					"id" : "obj-100",
					"fontname" : "Arial",
					"fontsize" : 12.0,
					"numinlets" : 2
				}

			}
, 			{
				"box" : 				{
					"maxclass" : "newobj",
					"text" : "-~ 0.5",
					"numoutlets" : 1,
					"outlettype" : [ "signal" ],
					"patching_rect" : [ 420.0, 240.0, 42.0, 20.0 ],
					"id" : "obj-101",
					"fontname" : "Arial",
					"fontsize" : 12.0,
					"numinlets" : 2
				}

			}
, 			{
				"box" : 				{
					"maxclass" : "newobj",
					"text" : "*~",
					"presentation_rect" : [ 467.0, 305.0, 0.0, 0.0 ],
					"numoutlets" : 1,
					"outlettype" : [ "signal" ],
					"patching_rect" : [ 480.0, 300.0, 32.5, 20.0 ],
					"id" : "obj-97",
					"fontname" : "Arial",
					"fontsize" : 12.0,
					"numinlets" : 2
				}

			}
, 			{
				"box" : 				{
					"maxclass" : "newobj",
					"text" : "cos~",
					"numoutlets" : 1,
					"outlettype" : [ "signal" ],
					"patching_rect" : [ 585.0, 300.0, 36.0, 20.0 ],
					"id" : "obj-94",
					"fontname" : "Arial",
					"fontsize" : 12.0,
					"numinlets" : 1
				}

			}
, 			{
				"box" : 				{
					"maxclass" : "newobj",
					"text" : "/~ 2",
					"numoutlets" : 1,
					"outlettype" : [ "signal" ],
					"patching_rect" : [ 585.0, 270.0, 32.5, 20.0 ],
					"id" : "obj-95",
					"fontname" : "Arial",
					"fontsize" : 12.0,
					"numinlets" : 2
				}

			}
, 			{
				"box" : 				{
					"maxclass" : "newobj",
					"text" : "-~ 0.5",
					"numoutlets" : 1,
					"outlettype" : [ "signal" ],
					"patching_rect" : [ 585.0, 240.0, 42.0, 20.0 ],
					"id" : "obj-96",
					"fontname" : "Arial",
					"fontsize" : 12.0,
					"numinlets" : 2
				}

			}
, 			{
				"box" : 				{
					"maxclass" : "newobj",
					"text" : "*~",
					"numoutlets" : 1,
					"outlettype" : [ "signal" ],
					"patching_rect" : [ 705.0, 300.0, 32.5, 20.0 ],
					"id" : "obj-93",
					"fontname" : "Arial",
					"fontsize" : 12.0,
					"numinlets" : 2
				}

			}
, 			{
				"box" : 				{
					"maxclass" : "newobj",
					"text" : "cos~",
					"numoutlets" : 1,
					"outlettype" : [ "signal" ],
					"patching_rect" : [ 810.0, 300.0, 36.0, 20.0 ],
					"id" : "obj-92",
					"fontname" : "Arial",
					"fontsize" : 12.0,
					"numinlets" : 1
				}

			}
, 			{
				"box" : 				{
					"maxclass" : "newobj",
					"text" : "/~ 2",
					"numoutlets" : 1,
					"outlettype" : [ "signal" ],
					"patching_rect" : [ 810.0, 270.0, 32.5, 20.0 ],
					"id" : "obj-91",
					"fontname" : "Arial",
					"fontsize" : 12.0,
					"numinlets" : 2
				}

			}
, 			{
				"box" : 				{
					"maxclass" : "newobj",
					"text" : "-~ 0.5",
					"numoutlets" : 1,
					"outlettype" : [ "signal" ],
					"patching_rect" : [ 810.0, 240.0, 42.0, 20.0 ],
					"id" : "obj-90",
					"fontname" : "Arial",
					"fontsize" : 12.0,
					"numinlets" : 2
				}

			}
, 			{
				"box" : 				{
					"maxclass" : "newobj",
					"text" : "omx.comp~",
					"presentation_rect" : [ 243.0, 681.0, 0.0, 0.0 ],
					"numoutlets" : 4,
					"outlettype" : [ "signal", "signal", "list", "list" ],
					"patching_rect" : [ 240.0, 675.0, 73.0, 20.0 ],
					"id" : "obj-83",
					"fontname" : "Arial",
					"fontsize" : 12.0,
					"numinlets" : 2
				}

			}
, 			{
				"box" : 				{
					"maxclass" : "newobj",
					"text" : "omx.comp~",
					"presentation_rect" : [ 407.0, 674.0, 0.0, 0.0 ],
					"numoutlets" : 4,
					"outlettype" : [ "signal", "signal", "list", "list" ],
					"patching_rect" : [ 405.0, 675.0, 73.0, 20.0 ],
					"id" : "obj-74",
					"fontname" : "Arial",
					"fontsize" : 12.0,
					"numinlets" : 2
				}

			}
, 			{
				"box" : 				{
					"maxclass" : "newobj",
					"text" : "omx.comp~",
					"numoutlets" : 4,
					"outlettype" : [ "signal", "signal", "list", "list" ],
					"patching_rect" : [ 555.0, 675.0, 73.0, 20.0 ],
					"id" : "obj-71",
					"fontname" : "Arial",
					"fontsize" : 12.0,
					"numinlets" : 2
				}

			}
, 			{
				"box" : 				{
					"maxclass" : "newobj",
					"text" : "tapout~",
					"presentation_rect" : [ 1169.0, 530.0, 0.0, 0.0 ],
					"numoutlets" : 1,
					"outlettype" : [ "signal" ],
					"patching_rect" : [ 705.0, 270.0, 51.0, 20.0 ],
					"id" : "obj-4",
					"fontname" : "Arial",
					"fontsize" : 12.0,
					"numinlets" : 1
				}

			}
, 			{
				"box" : 				{
					"maxclass" : "newobj",
					"text" : "tapin~",
					"presentation_rect" : [ 1169.0, 500.0, 0.0, 0.0 ],
					"numoutlets" : 1,
					"outlettype" : [ "tapconnect" ],
					"patching_rect" : [ 705.0, 240.0, 44.0, 20.0 ],
					"id" : "obj-5",
					"fontname" : "Arial",
					"fontsize" : 12.0,
					"numinlets" : 1
				}

			}
, 			{
				"box" : 				{
					"maxclass" : "newobj",
					"text" : "tapout~",
					"presentation_rect" : [ 1019.0, 530.0, 0.0, 0.0 ],
					"numoutlets" : 1,
					"outlettype" : [ "signal" ],
					"patching_rect" : [ 480.0, 270.0, 51.0, 20.0 ],
					"id" : "obj-6",
					"fontname" : "Arial",
					"fontsize" : 12.0,
					"numinlets" : 1
				}

			}
, 			{
				"box" : 				{
					"maxclass" : "newobj",
					"text" : "tapin~",
					"presentation_rect" : [ 1019.0, 500.0, 0.0, 0.0 ],
					"numoutlets" : 1,
					"outlettype" : [ "tapconnect" ],
					"patching_rect" : [ 480.0, 240.0, 44.0, 20.0 ],
					"id" : "obj-7",
					"fontname" : "Arial",
					"fontsize" : 12.0,
					"numinlets" : 1
				}

			}
, 			{
				"box" : 				{
					"maxclass" : "newobj",
					"text" : "tapout~",
					"numoutlets" : 1,
					"outlettype" : [ "signal" ],
					"patching_rect" : [ 315.0, 270.0, 51.0, 20.0 ],
					"id" : "obj-8",
					"fontname" : "Arial",
					"fontsize" : 12.0,
					"numinlets" : 1
				}

			}
, 			{
				"box" : 				{
					"maxclass" : "newobj",
					"text" : "tapin~",
					"numoutlets" : 1,
					"outlettype" : [ "tapconnect" ],
					"patching_rect" : [ 315.0, 240.0, 44.0, 20.0 ],
					"id" : "obj-9",
					"fontname" : "Arial",
					"fontsize" : 12.0,
					"numinlets" : 1
				}

			}
, 			{
				"box" : 				{
					"maxclass" : "newobj",
					"text" : "*~ 100",
					"presentation_rect" : [ 1214.0, 500.0, 0.0, 0.0 ],
					"numoutlets" : 1,
					"outlettype" : [ "signal" ],
					"patching_rect" : [ 750.0, 240.0, 46.0, 20.0 ],
					"id" : "obj-10",
					"fontname" : "Arial",
					"fontsize" : 12.0,
					"numinlets" : 2
				}

			}
, 			{
				"box" : 				{
					"maxclass" : "newobj",
					"text" : "phasor~",
					"presentation_rect" : [ 1214.0, 470.0, 0.0, 0.0 ],
					"numoutlets" : 1,
					"outlettype" : [ "signal" ],
					"patching_rect" : [ 750.0, 210.0, 54.0, 20.0 ],
					"id" : "obj-11",
					"fontname" : "Arial",
					"fontsize" : 12.0,
					"numinlets" : 2
				}

			}
, 			{
				"box" : 				{
					"maxclass" : "newobj",
					"text" : "*~ 100",
					"presentation_rect" : [ 1064.0, 500.0, 0.0, 0.0 ],
					"numoutlets" : 1,
					"outlettype" : [ "signal" ],
					"patching_rect" : [ 525.0, 240.0, 46.0, 20.0 ],
					"id" : "obj-12",
					"fontname" : "Arial",
					"fontsize" : 12.0,
					"numinlets" : 2
				}

			}
, 			{
				"box" : 				{
					"maxclass" : "newobj",
					"text" : "phasor~",
					"presentation_rect" : [ 1064.0, 470.0, 0.0, 0.0 ],
					"numoutlets" : 1,
					"outlettype" : [ "signal" ],
					"patching_rect" : [ 525.0, 210.0, 54.0, 20.0 ],
					"id" : "obj-13",
					"fontname" : "Arial",
					"fontsize" : 12.0,
					"numinlets" : 2
				}

			}
, 			{
				"box" : 				{
					"maxclass" : "newobj",
					"text" : "*~ 100",
					"presentation_rect" : [ 914.0, 500.0, 0.0, 0.0 ],
					"numoutlets" : 1,
					"outlettype" : [ "signal" ],
					"patching_rect" : [ 360.0, 240.0, 46.0, 20.0 ],
					"id" : "obj-14",
					"fontname" : "Arial",
					"fontsize" : 12.0,
					"numinlets" : 2
				}

			}
, 			{
				"box" : 				{
					"maxclass" : "newobj",
					"text" : "phasor~",
					"presentation_rect" : [ 914.0, 470.0, 0.0, 0.0 ],
					"numoutlets" : 1,
					"outlettype" : [ "signal" ],
					"patching_rect" : [ 360.0, 210.0, 54.0, 20.0 ],
					"id" : "obj-15",
					"fontname" : "Arial",
					"fontsize" : 12.0,
					"numinlets" : 2
				}

			}
, 			{
				"box" : 				{
					"maxclass" : "button",
					"presentation_rect" : [ 480.0, 135.0, 20.0, 20.0 ],
					"numoutlets" : 1,
					"outlettype" : [ "bang" ],
					"patching_rect" : [ 405.0, 120.0, 20.0, 20.0 ],
					"presentation" : 1,
					"id" : "obj-16",
					"numinlets" : 1
				}

			}
, 			{
				"box" : 				{
					"maxclass" : "newobj",
					"text" : "t 63.5",
					"presentation_rect" : [ 959.0, 410.0, 0.0, 0.0 ],
					"numoutlets" : 1,
					"outlettype" : [ "float" ],
					"patching_rect" : [ 405.0, 150.0, 41.0, 20.0 ],
					"id" : "obj-17",
					"fontname" : "Arial",
					"fontsize" : 12.0,
					"numinlets" : 1
				}

			}
, 			{
				"box" : 				{
					"maxclass" : "button",
					"presentation_rect" : [ 480.0, 165.0, 20.0, 20.0 ],
					"numoutlets" : 1,
					"outlettype" : [ "bang" ],
					"patching_rect" : [ 570.0, 120.0, 20.0, 20.0 ],
					"presentation" : 1,
					"id" : "obj-18",
					"numinlets" : 1
				}

			}
, 			{
				"box" : 				{
					"maxclass" : "newobj",
					"text" : "t 63.5",
					"presentation_rect" : [ 1109.0, 410.0, 0.0, 0.0 ],
					"numoutlets" : 1,
					"outlettype" : [ "float" ],
					"patching_rect" : [ 570.0, 150.0, 41.0, 20.0 ],
					"id" : "obj-19",
					"fontname" : "Arial",
					"fontsize" : 12.0,
					"numinlets" : 1
				}

			}
, 			{
				"box" : 				{
					"maxclass" : "button",
					"presentation_rect" : [ 480.0, 195.0, 20.0, 20.0 ],
					"numoutlets" : 1,
					"outlettype" : [ "bang" ],
					"patching_rect" : [ 795.0, 120.0, 20.0, 20.0 ],
					"presentation" : 1,
					"id" : "obj-20",
					"numinlets" : 1
				}

			}
, 			{
				"box" : 				{
					"maxclass" : "newobj",
					"text" : "t 63.5",
					"presentation_rect" : [ 1259.0, 410.0, 0.0, 0.0 ],
					"numoutlets" : 1,
					"outlettype" : [ "float" ],
					"patching_rect" : [ 795.0, 150.0, 41.0, 20.0 ],
					"id" : "obj-23",
					"fontname" : "Arial",
					"fontsize" : 12.0,
					"numinlets" : 1
				}

			}
, 			{
				"box" : 				{
					"maxclass" : "newobj",
					"text" : "loadbang",
					"presentation_rect" : [ 1259.0, 350.0, 0.0, 0.0 ],
					"numoutlets" : 1,
					"outlettype" : [ "bang" ],
					"patching_rect" : [ 795.0, 90.0, 60.0, 20.0 ],
					"id" : "obj-24",
					"fontname" : "Arial",
					"fontsize" : 12.0,
					"numinlets" : 1
				}

			}
, 			{
				"box" : 				{
					"maxclass" : "comment",
					"text" : "FN",
					"presentation_rect" : [ 450.0, 120.0, 25.0, 20.0 ],
					"numoutlets" : 0,
					"patching_rect" : [ 330.0, 135.0, 25.0, 20.0 ],
					"presentation" : 1,
					"id" : "obj-25",
					"fontname" : "Arial",
					"fontsize" : 12.0,
					"numinlets" : 1
				}

			}
, 			{
				"box" : 				{
					"maxclass" : "newobj",
					"text" : "scale 0 127 1. -1.",
					"numoutlets" : 1,
					"outlettype" : [ "" ],
					"patching_rect" : [ 750.0, 180.0, 103.0, 20.0 ],
					"id" : "obj-26",
					"fontname" : "Arial",
					"fontsize" : 12.0,
					"numinlets" : 6
				}

			}
, 			{
				"box" : 				{
					"maxclass" : "dial",
					"presentation_rect" : [ 450.0, 195.0, 30.0, 30.0 ],
					"numoutlets" : 1,
					"outlettype" : [ "float" ],
					"patching_rect" : [ 750.0, 135.0, 40.0, 40.0 ],
					"presentation" : 1,
					"id" : "obj-28",
					"fgcolor" : [ 0.317647, 0.709804, 0.321569, 1.0 ],
					"floatoutput" : 1,
					"numinlets" : 1,
					"needlecolor" : [ 0.0, 0.0, 0.0, 1.0 ],
					"bgcolor" : [ 0.694118, 0.694118, 0.694118, 1.0 ]
				}

			}
, 			{
				"box" : 				{
					"maxclass" : "newobj",
					"text" : "scale 0 127 1. -1.",
					"numoutlets" : 1,
					"outlettype" : [ "" ],
					"patching_rect" : [ 525.0, 180.0, 103.0, 20.0 ],
					"id" : "obj-29",
					"fontname" : "Arial",
					"fontsize" : 12.0,
					"numinlets" : 6
				}

			}
, 			{
				"box" : 				{
					"maxclass" : "dial",
					"presentation_rect" : [ 450.0, 165.0, 30.0, 30.0 ],
					"numoutlets" : 1,
					"outlettype" : [ "float" ],
					"patching_rect" : [ 525.0, 135.0, 40.0, 40.0 ],
					"presentation" : 1,
					"id" : "obj-30",
					"fgcolor" : [ 0.317647, 0.709804, 0.321569, 1.0 ],
					"floatoutput" : 1,
					"numinlets" : 1,
					"needlecolor" : [ 0.0, 0.0, 0.0, 1.0 ],
					"bgcolor" : [ 0.694118, 0.694118, 0.694118, 1.0 ]
				}

			}
, 			{
				"box" : 				{
					"maxclass" : "newobj",
					"text" : "scale 0 127 1. -1.",
					"numoutlets" : 1,
					"outlettype" : [ "" ],
					"patching_rect" : [ 360.0, 180.0, 103.0, 20.0 ],
					"id" : "obj-33",
					"fontname" : "Arial",
					"fontsize" : 12.0,
					"numinlets" : 6
				}

			}
, 			{
				"box" : 				{
					"maxclass" : "dial",
					"presentation_rect" : [ 450.0, 135.0, 30.0, 30.0 ],
					"numoutlets" : 1,
					"outlettype" : [ "float" ],
					"patching_rect" : [ 360.0, 135.0, 40.0, 40.0 ],
					"presentation" : 1,
					"id" : "obj-34",
					"fgcolor" : [ 0.317647, 0.709804, 0.321569, 1.0 ],
					"floatoutput" : 1,
					"numinlets" : 1,
					"needlecolor" : [ 0.0, 0.0, 0.0, 1.0 ],
					"bgcolor" : [ 0.694118, 0.694118, 0.694118, 1.0 ]
				}

			}
, 			{
				"box" : 				{
					"maxclass" : "newobj",
					"text" : "+~",
					"numoutlets" : 1,
					"outlettype" : [ "signal" ],
					"patching_rect" : [ 555.0, 645.0, 32.5, 20.0 ],
					"id" : "obj-167",
					"fontname" : "Arial",
					"fontsize" : 12.0,
					"numinlets" : 2
				}

			}
, 			{
				"box" : 				{
					"maxclass" : "newobj",
					"text" : "+~",
					"numoutlets" : 1,
					"outlettype" : [ "signal" ],
					"patching_rect" : [ 405.0, 645.0, 32.5, 20.0 ],
					"id" : "obj-166",
					"fontname" : "Arial",
					"fontsize" : 12.0,
					"numinlets" : 2
				}

			}
, 			{
				"box" : 				{
					"maxclass" : "newobj",
					"text" : "+~",
					"numoutlets" : 1,
					"outlettype" : [ "signal" ],
					"patching_rect" : [ 240.0, 645.0, 32.5, 20.0 ],
					"id" : "obj-165",
					"fontname" : "Arial",
					"fontsize" : 12.0,
					"numinlets" : 2
				}

			}
, 			{
				"box" : 				{
					"maxclass" : "flonum",
					"presentation_rect" : [ 870.0, 210.0, 50.0, 20.0 ],
					"numoutlets" : 2,
					"outlettype" : [ "float", "bang" ],
					"patching_rect" : [ 915.0, 390.0, 50.0, 20.0 ],
					"presentation" : 1,
					"id" : "obj-164",
					"fontname" : "Arial",
					"fontsize" : 12.0,
					"numinlets" : 1
				}

			}
, 			{
				"box" : 				{
					"maxclass" : "newobj",
					"text" : "adstatus cpu",
					"presentation_rect" : [ 870.0, 180.0, 79.0, 20.0 ],
					"numoutlets" : 2,
					"outlettype" : [ "", "int" ],
					"patching_rect" : [ 915.0, 360.0, 79.0, 20.0 ],
					"presentation" : 1,
					"id" : "obj-159",
					"fontname" : "Arial",
					"fontsize" : 12.0,
					"numinlets" : 2
				}

			}
, 			{
				"box" : 				{
					"maxclass" : "scope~",
					"presentation_rect" : [ 660.0, 135.0, 135.0, 120.0 ],
					"numoutlets" : 0,
					"patching_rect" : [ 930.0, 1050.0, 130.0, 130.0 ],
					"presentation" : 1,
					"id" : "obj-158",
					"numinlets" : 2
				}

			}
, 			{
				"box" : 				{
					"maxclass" : "scope~",
					"presentation_rect" : [ 525.0, 135.0, 135.0, 120.0 ],
					"numoutlets" : 0,
					"patching_rect" : [ 795.0, 1050.0, 130.0, 130.0 ],
					"presentation" : 1,
					"id" : "obj-157",
					"numinlets" : 2
				}

			}
, 			{
				"box" : 				{
					"maxclass" : "comment",
					"text" : "DELAY / REVERB",
					"presentation_rect" : [ 15.0, 120.0, 108.0, 20.0 ],
					"numoutlets" : 0,
					"patching_rect" : [ 960.0, 435.0, 108.0, 20.0 ],
					"presentation" : 1,
					"id" : "obj-156",
					"fontname" : "Arial",
					"fontsize" : 12.0,
					"numinlets" : 1
				}

			}
, 			{
				"box" : 				{
					"maxclass" : "gain~",
					"presentation_rect" : [ 660.0, 120.0, 135.0, 15.0 ],
					"numoutlets" : 2,
					"outlettype" : [ "signal", "int" ],
					"patching_rect" : [ 930.0, 975.0, 105.0, 30.0 ],
					"presentation" : 1,
					"id" : "obj-144",
					"numinlets" : 2
				}

			}
, 			{
				"box" : 				{
					"maxclass" : "outlet",
					"numoutlets" : 0,
					"patching_rect" : [ 285.0, 975.0, 25.0, 25.0 ],
					"id" : "obj-142",
					"numinlets" : 1,
					"comment" : ""
				}

			}
, 			{
				"box" : 				{
					"maxclass" : "outlet",
					"numoutlets" : 0,
					"patching_rect" : [ 240.0, 975.0, 25.0, 25.0 ],
					"id" : "obj-141",
					"numinlets" : 1,
					"comment" : ""
				}

			}
, 			{
				"box" : 				{
					"maxclass" : "flonum",
					"presentation_rect" : [ 15.0, 60.0, 50.0, 20.0 ],
					"numoutlets" : 2,
					"outlettype" : [ "float", "bang" ],
					"patching_rect" : [ 45.0, 255.0, 50.0, 20.0 ],
					"presentation" : 1,
					"id" : "obj-138",
					"fontname" : "Arial",
					"fontsize" : 12.0,
					"numinlets" : 1
				}

			}
, 			{
				"box" : 				{
					"maxclass" : "newobj",
					"text" : "cycle~",
					"presentation_rect" : [ 15.0, 90.0, 45.0, 20.0 ],
					"numoutlets" : 1,
					"outlettype" : [ "signal" ],
					"patching_rect" : [ 45.0, 285.0, 45.0, 20.0 ],
					"presentation" : 1,
					"id" : "obj-136",
					"fontname" : "Arial",
					"fontsize" : 12.0,
					"numinlets" : 2
				}

			}
, 			{
				"box" : 				{
					"maxclass" : "newobj",
					"text" : "*~",
					"numoutlets" : 1,
					"outlettype" : [ "signal" ],
					"patching_rect" : [ 90.0, 345.0, 32.5, 20.0 ],
					"id" : "obj-135",
					"fontname" : "Arial",
					"fontsize" : 12.0,
					"numinlets" : 2
				}

			}
, 			{
				"box" : 				{
					"maxclass" : "toggle",
					"presentation_rect" : [ 90.0, 30.0, 20.0, 20.0 ],
					"numoutlets" : 1,
					"outlettype" : [ "int" ],
					"patching_rect" : [ 105.0, 255.0, 20.0, 20.0 ],
					"presentation" : 1,
					"id" : "obj-134",
					"numinlets" : 1
				}

			}
, 			{
				"box" : 				{
					"maxclass" : "newobj",
					"text" : "adsr~ 10 0 1 10",
					"numoutlets" : 4,
					"outlettype" : [ "signal", "signal", "", "" ],
					"patching_rect" : [ 105.0, 285.0, 94.0, 20.0 ],
					"id" : "obj-132",
					"fontname" : "Arial",
					"fontsize" : 12.0,
					"numinlets" : 5
				}

			}
, 			{
				"box" : 				{
					"maxclass" : "toggle",
					"presentation_rect" : [ 15.0, 0.0, 20.0, 20.0 ],
					"numoutlets" : 1,
					"outlettype" : [ "int" ],
					"patching_rect" : [ 105.0, 195.0, 20.0, 20.0 ],
					"presentation" : 1,
					"id" : "obj-119",
					"numinlets" : 1
				}

			}
, 			{
				"box" : 				{
					"maxclass" : "newobj",
					"text" : "metro 500",
					"presentation_rect" : [ 15.0, 30.0, 65.0, 20.0 ],
					"numoutlets" : 1,
					"outlettype" : [ "bang" ],
					"patching_rect" : [ 105.0, 225.0, 65.0, 20.0 ],
					"presentation" : 1,
					"id" : "obj-117",
					"fontname" : "Arial",
					"fontsize" : 12.0,
					"numinlets" : 2
				}

			}
, 			{
				"box" : 				{
					"maxclass" : "comment",
					"text" : "500",
					"presentation_rect" : [ 165.0, 225.0, 31.0, 20.0 ],
					"numoutlets" : 0,
					"patching_rect" : [ 390.0, 360.0, 31.0, 20.0 ],
					"presentation" : 1,
					"id" : "obj-105",
					"fontname" : "Arial",
					"fontsize" : 12.0,
					"numinlets" : 1
				}

			}
, 			{
				"box" : 				{
					"maxclass" : "comment",
					"text" : "1000",
					"presentation_rect" : [ 315.0, 225.0, 37.0, 20.0 ],
					"numoutlets" : 0,
					"patching_rect" : [ 540.0, 360.0, 37.0, 20.0 ],
					"presentation" : 1,
					"id" : "obj-104",
					"fontname" : "Arial",
					"fontsize" : 12.0,
					"numinlets" : 1
				}

			}
, 			{
				"box" : 				{
					"maxclass" : "comment",
					"text" : "0",
					"presentation_rect" : [ 15.0, 225.0, 19.0, 20.0 ],
					"numoutlets" : 0,
					"patching_rect" : [ 240.0, 360.0, 19.0, 20.0 ],
					"presentation" : 1,
					"id" : "obj-102",
					"fontname" : "Arial",
					"fontsize" : 12.0,
					"numinlets" : 1
				}

			}
, 			{
				"box" : 				{
					"maxclass" : "newobj",
					"text" : "delay~ 4410 0",
					"numoutlets" : 1,
					"outlettype" : [ "signal" ],
					"patching_rect" : [ 570.0, 930.0, 86.0, 20.0 ],
					"id" : "obj-89",
					"fontname" : "Arial",
					"fontsize" : 12.0,
					"numinlets" : 2
				}

			}
, 			{
				"box" : 				{
					"maxclass" : "newobj",
					"text" : "loadbang",
					"numoutlets" : 1,
					"outlettype" : [ "bang" ],
					"patching_rect" : [ 750.0, 765.0, 60.0, 20.0 ],
					"id" : "obj-88",
					"fontname" : "Arial",
					"fontsize" : 12.0,
					"numinlets" : 1
				}

			}
, 			{
				"box" : 				{
					"maxclass" : "newobj",
					"text" : "* 0.01",
					"numoutlets" : 1,
					"outlettype" : [ "float" ],
					"patching_rect" : [ 810.0, 825.0, 42.0, 20.0 ],
					"id" : "obj-87",
					"fontname" : "Arial",
					"fontsize" : 12.0,
					"numinlets" : 2
				}

			}
, 			{
				"box" : 				{
					"maxclass" : "newobj",
					"text" : "adstatus sr",
					"numoutlets" : 2,
					"outlettype" : [ "", "int" ],
					"patching_rect" : [ 750.0, 795.0, 79.0, 20.0 ],
					"id" : "obj-82",
					"fontname" : "Arial",
					"fontsize" : 12.0,
					"numinlets" : 2
				}

			}
, 			{
				"box" : 				{
					"maxclass" : "comment",
					"text" : "ST",
					"presentation_rect" : [ 420.0, 120.0, 25.0, 20.0 ],
					"numoutlets" : 0,
					"patching_rect" : [ 330.0, 855.0, 25.0, 20.0 ],
					"presentation" : 1,
					"id" : "obj-75",
					"fontname" : "Arial",
					"fontsize" : 12.0,
					"numinlets" : 1
				}

			}
, 			{
				"box" : 				{
					"maxclass" : "newobj",
					"text" : "scale 0 127 0 9600",
					"numoutlets" : 1,
					"outlettype" : [ "" ],
					"patching_rect" : [ 570.0, 900.0, 112.0, 20.0 ],
					"id" : "obj-76",
					"fontname" : "Arial",
					"fontsize" : 12.0,
					"numinlets" : 6
				}

			}
, 			{
				"box" : 				{
					"maxclass" : "dial",
					"presentation_rect" : [ 420.0, 195.0, 30.0, 30.0 ],
					"numoutlets" : 1,
					"outlettype" : [ "float" ],
					"patching_rect" : [ 570.0, 855.0, 40.0, 40.0 ],
					"presentation" : 1,
					"id" : "obj-77",
					"fgcolor" : [ 0.317647, 0.709804, 0.321569, 1.0 ],
					"numinlets" : 1,
					"needlecolor" : [ 0.0, 0.0, 0.0, 1.0 ],
					"bgcolor" : [ 0.694118, 0.694118, 0.694118, 1.0 ]
				}

			}
, 			{
				"box" : 				{
					"maxclass" : "newobj",
					"text" : "scale 0 127 0 9600",
					"numoutlets" : 1,
					"outlettype" : [ "" ],
					"patching_rect" : [ 435.0, 900.0, 112.0, 20.0 ],
					"id" : "obj-78",
					"fontname" : "Arial",
					"fontsize" : 12.0,
					"numinlets" : 6
				}

			}
, 			{
				"box" : 				{
					"maxclass" : "dial",
					"presentation_rect" : [ 420.0, 165.0, 30.0, 30.0 ],
					"numoutlets" : 1,
					"outlettype" : [ "float" ],
					"patching_rect" : [ 435.0, 855.0, 40.0, 40.0 ],
					"presentation" : 1,
					"id" : "obj-79",
					"fgcolor" : [ 0.317647, 0.709804, 0.321569, 1.0 ],
					"numinlets" : 1,
					"needlecolor" : [ 0.0, 0.0, 0.0, 1.0 ],
					"bgcolor" : [ 0.694118, 0.694118, 0.694118, 1.0 ]
				}

			}
, 			{
				"box" : 				{
					"maxclass" : "newobj",
					"text" : "scale 0 127 0 9600",
					"numoutlets" : 1,
					"outlettype" : [ "" ],
					"patching_rect" : [ 285.0, 900.0, 112.0, 20.0 ],
					"id" : "obj-80",
					"fontname" : "Arial",
					"fontsize" : 12.0,
					"numinlets" : 6
				}

			}
, 			{
				"box" : 				{
					"maxclass" : "dial",
					"presentation_rect" : [ 420.0, 135.0, 30.0, 30.0 ],
					"numoutlets" : 1,
					"outlettype" : [ "float" ],
					"patching_rect" : [ 285.0, 855.0, 40.0, 40.0 ],
					"presentation" : 1,
					"id" : "obj-81",
					"fgcolor" : [ 0.317647, 0.709804, 0.321569, 1.0 ],
					"numinlets" : 1,
					"needlecolor" : [ 0.0, 0.0, 0.0, 1.0 ],
					"bgcolor" : [ 0.694118, 0.694118, 0.694118, 1.0 ]
				}

			}
, 			{
				"box" : 				{
					"maxclass" : "comment",
					"text" : "LP",
					"presentation_rect" : [ 390.0, 120.0, 25.0, 20.0 ],
					"numoutlets" : 0,
					"patching_rect" : [ 330.0, 705.0, 25.0, 20.0 ],
					"presentation" : 1,
					"id" : "obj-73",
					"fontname" : "Arial",
					"fontsize" : 12.0,
					"numinlets" : 1
				}

			}
, 			{
				"box" : 				{
					"maxclass" : "comment",
					"text" : "FD",
					"presentation_rect" : [ 360.0, 120.0, 26.0, 20.0 ],
					"numoutlets" : 0,
					"patching_rect" : [ 480.0, 495.0, 59.0, 20.0 ],
					"presentation" : 1,
					"id" : "obj-72",
					"fontname" : "Arial",
					"fontsize" : 12.0,
					"numinlets" : 1
				}

			}
, 			{
				"box" : 				{
					"maxclass" : "newobj",
					"text" : "onepole~ 2000. Hz",
					"numoutlets" : 1,
					"outlettype" : [ "signal" ],
					"patching_rect" : [ 600.0, 780.0, 112.0, 20.0 ],
					"id" : "obj-70",
					"fontname" : "Arial",
					"fontsize" : 12.0,
					"numinlets" : 2
				}

			}
, 			{
				"box" : 				{
					"maxclass" : "newobj",
					"text" : "onepole~ 2000. Hz",
					"numoutlets" : 1,
					"outlettype" : [ "signal" ],
					"patching_rect" : [ 435.0, 780.0, 112.0, 20.0 ],
					"id" : "obj-69",
					"fontname" : "Arial",
					"fontsize" : 12.0,
					"numinlets" : 2
				}

			}
, 			{
				"box" : 				{
					"maxclass" : "newobj",
					"text" : "scale 0 127 2000. 10.",
					"numoutlets" : 1,
					"outlettype" : [ "" ],
					"patching_rect" : [ 600.0, 750.0, 125.0, 20.0 ],
					"id" : "obj-63",
					"fontname" : "Arial",
					"fontsize" : 12.0,
					"numinlets" : 6
				}

			}
, 			{
				"box" : 				{
					"maxclass" : "dial",
					"presentation_rect" : [ 390.0, 195.0, 30.0, 30.0 ],
					"numoutlets" : 1,
					"outlettype" : [ "float" ],
					"patching_rect" : [ 600.0, 705.0, 40.0, 40.0 ],
					"presentation" : 1,
					"id" : "obj-64",
					"fgcolor" : [ 0.317647, 0.709804, 0.321569, 1.0 ],
					"numinlets" : 1,
					"needlecolor" : [ 0.0, 0.0, 0.0, 1.0 ],
					"bgcolor" : [ 0.694118, 0.694118, 0.694118, 1.0 ]
				}

			}
, 			{
				"box" : 				{
					"maxclass" : "newobj",
					"text" : "scale 0 127 2000. 10.",
					"numoutlets" : 1,
					"outlettype" : [ "" ],
					"patching_rect" : [ 435.0, 750.0, 125.0, 20.0 ],
					"id" : "obj-65",
					"fontname" : "Arial",
					"fontsize" : 12.0,
					"numinlets" : 6
				}

			}
, 			{
				"box" : 				{
					"maxclass" : "dial",
					"presentation_rect" : [ 390.0, 165.0, 30.0, 30.0 ],
					"numoutlets" : 1,
					"outlettype" : [ "float" ],
					"patching_rect" : [ 435.0, 705.0, 40.0, 40.0 ],
					"presentation" : 1,
					"id" : "obj-66",
					"fgcolor" : [ 0.317647, 0.709804, 0.321569, 1.0 ],
					"numinlets" : 1,
					"needlecolor" : [ 0.0, 0.0, 0.0, 1.0 ],
					"bgcolor" : [ 0.694118, 0.694118, 0.694118, 1.0 ]
				}

			}
, 			{
				"box" : 				{
					"maxclass" : "newobj",
					"text" : "scale 0 127 2000. 10.",
					"numoutlets" : 1,
					"outlettype" : [ "" ],
					"patching_rect" : [ 285.0, 750.0, 125.0, 20.0 ],
					"id" : "obj-67",
					"fontname" : "Arial",
					"fontsize" : 12.0,
					"numinlets" : 6
				}

			}
, 			{
				"box" : 				{
					"maxclass" : "dial",
					"presentation_rect" : [ 390.0, 135.0, 30.0, 30.0 ],
					"numoutlets" : 1,
					"outlettype" : [ "float" ],
					"patching_rect" : [ 285.0, 705.0, 40.0, 40.0 ],
					"presentation" : 1,
					"id" : "obj-68",
					"fgcolor" : [ 0.317647, 0.709804, 0.321569, 1.0 ],
					"numinlets" : 1,
					"needlecolor" : [ 0.0, 0.0, 0.0, 1.0 ],
					"bgcolor" : [ 0.694118, 0.694118, 0.694118, 1.0 ]
				}

			}
, 			{
				"box" : 				{
					"maxclass" : "newobj",
					"text" : "onepole~ 2000. Hz",
					"numoutlets" : 1,
					"outlettype" : [ "signal" ],
					"patching_rect" : [ 285.0, 780.0, 112.0, 20.0 ],
					"id" : "obj-60",
					"fontname" : "Arial",
					"fontsize" : 12.0,
					"numinlets" : 2
				}

			}
, 			{
				"box" : 				{
					"maxclass" : "newobj",
					"text" : "biquad~ 1. -1. 0. -0.9997 0.",
					"numoutlets" : 1,
					"outlettype" : [ "signal" ],
					"patching_rect" : [ 570.0, 600.0, 150.0, 20.0 ],
					"id" : "obj-59",
					"fontname" : "Arial",
					"fontsize" : 11.595187,
					"numinlets" : 6
				}

			}
, 			{
				"box" : 				{
					"maxclass" : "newobj",
					"text" : "biquad~ 1. -1. 0. -0.9997 0.",
					"numoutlets" : 1,
					"outlettype" : [ "signal" ],
					"patching_rect" : [ 420.0, 600.0, 150.0, 20.0 ],
					"id" : "obj-58",
					"fontname" : "Arial",
					"fontsize" : 11.595187,
					"numinlets" : 6
				}

			}
, 			{
				"box" : 				{
					"maxclass" : "newobj",
					"text" : "biquad~ 1. -1. 0. -0.9997 0.",
					"numoutlets" : 1,
					"outlettype" : [ "signal" ],
					"patching_rect" : [ 270.0, 600.0, 150.0, 20.0 ],
					"id" : "obj-50",
					"fontname" : "Arial",
					"fontsize" : 11.595187,
					"numinlets" : 6
				}

			}
, 			{
				"box" : 				{
					"maxclass" : "newobj",
					"text" : "scale 0 127 0. 1.",
					"numoutlets" : 1,
					"outlettype" : [ "" ],
					"patching_rect" : [ 705.0, 540.0, 99.0, 20.0 ],
					"id" : "obj-55",
					"fontname" : "Arial",
					"fontsize" : 12.0,
					"numinlets" : 6
				}

			}
, 			{
				"box" : 				{
					"maxclass" : "dial",
					"presentation_rect" : [ 360.0, 195.0, 30.0, 30.0 ],
					"numoutlets" : 1,
					"outlettype" : [ "float" ],
					"patching_rect" : [ 705.0, 495.0, 40.0, 40.0 ],
					"presentation" : 1,
					"id" : "obj-56",
					"fgcolor" : [ 0.317647, 0.709804, 0.321569, 1.0 ],
					"numinlets" : 1,
					"needlecolor" : [ 0.0, 0.0, 0.0, 1.0 ],
					"bgcolor" : [ 0.694118, 0.694118, 0.694118, 1.0 ]
				}

			}
, 			{
				"box" : 				{
					"maxclass" : "newobj",
					"text" : "scale 0 127 0. 1.",
					"numoutlets" : 1,
					"outlettype" : [ "" ],
					"patching_rect" : [ 570.0, 540.0, 99.0, 20.0 ],
					"id" : "obj-53",
					"fontname" : "Arial",
					"fontsize" : 12.0,
					"numinlets" : 6
				}

			}
, 			{
				"box" : 				{
					"maxclass" : "dial",
					"presentation_rect" : [ 360.0, 165.0, 30.0, 30.0 ],
					"numoutlets" : 1,
					"outlettype" : [ "float" ],
					"patching_rect" : [ 570.0, 495.0, 40.0, 40.0 ],
					"presentation" : 1,
					"id" : "obj-54",
					"fgcolor" : [ 0.317647, 0.709804, 0.321569, 1.0 ],
					"numinlets" : 1,
					"needlecolor" : [ 0.0, 0.0, 0.0, 1.0 ],
					"bgcolor" : [ 0.694118, 0.694118, 0.694118, 1.0 ]
				}

			}
, 			{
				"box" : 				{
					"maxclass" : "newobj",
					"text" : "scale 0 127 0. 1.",
					"numoutlets" : 1,
					"outlettype" : [ "" ],
					"patching_rect" : [ 435.0, 540.0, 99.0, 20.0 ],
					"id" : "obj-52",
					"fontname" : "Arial",
					"fontsize" : 12.0,
					"numinlets" : 6
				}

			}
, 			{
				"box" : 				{
					"maxclass" : "dial",
					"presentation_rect" : [ 360.0, 135.0, 30.0, 30.0 ],
					"numoutlets" : 1,
					"outlettype" : [ "float" ],
					"patching_rect" : [ 435.0, 495.0, 40.0, 40.0 ],
					"presentation" : 1,
					"id" : "obj-48",
					"fgcolor" : [ 0.317647, 0.709804, 0.321569, 1.0 ],
					"numinlets" : 1,
					"needlecolor" : [ 0.0, 0.0, 0.0, 1.0 ],
					"bgcolor" : [ 0.694118, 0.694118, 0.694118, 1.0 ]
				}

			}
, 			{
				"box" : 				{
					"maxclass" : "newobj",
					"text" : "tapin~ 1000",
					"numoutlets" : 1,
					"outlettype" : [ "tapconnect" ],
					"patching_rect" : [ 720.0, 330.0, 74.0, 20.0 ],
					"id" : "obj-47",
					"fontname" : "Arial",
					"fontsize" : 12.0,
					"numinlets" : 1
				}

			}
, 			{
				"box" : 				{
					"maxclass" : "newobj",
					"text" : "tapin~ 1000",
					"numoutlets" : 1,
					"outlettype" : [ "tapconnect" ],
					"patching_rect" : [ 510.0, 330.0, 74.0, 20.0 ],
					"id" : "obj-46",
					"fontname" : "Arial",
					"fontsize" : 12.0,
					"numinlets" : 1
				}

			}
, 			{
				"box" : 				{
					"maxclass" : "newobj",
					"text" : "*~",
					"numoutlets" : 1,
					"outlettype" : [ "signal" ],
					"patching_rect" : [ 570.0, 570.0, 32.5, 20.0 ],
					"id" : "obj-45",
					"fontname" : "Arial",
					"fontsize" : 12.0,
					"numinlets" : 2
				}

			}
, 			{
				"box" : 				{
					"maxclass" : "newobj",
					"text" : "*~",
					"numoutlets" : 1,
					"outlettype" : [ "signal" ],
					"patching_rect" : [ 420.0, 570.0, 32.5, 20.0 ],
					"id" : "obj-44",
					"fontname" : "Arial",
					"fontsize" : 12.0,
					"numinlets" : 2
				}

			}
, 			{
				"box" : 				{
					"maxclass" : "newobj",
					"text" : "*~",
					"numoutlets" : 1,
					"outlettype" : [ "signal" ],
					"patching_rect" : [ 270.0, 570.0, 32.5, 20.0 ],
					"id" : "obj-43",
					"fontname" : "Arial",
					"fontsize" : 12.0,
					"numinlets" : 2
				}

			}
, 			{
				"box" : 				{
					"maxclass" : "newobj",
					"text" : "change 0.",
					"numoutlets" : 3,
					"outlettype" : [ "", "int", "int" ],
					"patching_rect" : [ 420.0, 465.0, 63.0, 20.0 ],
					"id" : "obj-42",
					"fontname" : "Arial",
					"fontsize" : 12.0,
					"numinlets" : 1
				}

			}
, 			{
				"box" : 				{
					"maxclass" : "newobj",
					"text" : "change 0.",
					"numoutlets" : 3,
					"outlettype" : [ "", "int", "int" ],
					"patching_rect" : [ 330.0, 465.0, 63.0, 20.0 ],
					"id" : "obj-41",
					"fontname" : "Arial",
					"fontsize" : 12.0,
					"numinlets" : 1
				}

			}
, 			{
				"box" : 				{
					"maxclass" : "newobj",
					"text" : "change 0.",
					"numoutlets" : 3,
					"outlettype" : [ "", "int", "int" ],
					"patching_rect" : [ 240.0, 465.0, 63.0, 20.0 ],
					"id" : "obj-40",
					"fontname" : "Arial",
					"fontsize" : 12.0,
					"numinlets" : 1
				}

			}
, 			{
				"box" : 				{
					"maxclass" : "newobj",
					"text" : "unpack 0. 0. 0.",
					"numoutlets" : 3,
					"outlettype" : [ "float", "float", "float" ],
					"patching_rect" : [ 240.0, 435.0, 199.0, 20.0 ],
					"id" : "obj-37",
					"fontname" : "Arial",
					"fontsize" : 12.0,
					"numinlets" : 1
				}

			}
, 			{
				"box" : 				{
					"maxclass" : "newobj",
					"text" : "tapout~ 10 10 10",
					"numoutlets" : 3,
					"outlettype" : [ "signal", "signal", "signal" ],
					"patching_rect" : [ 240.0, 510.0, 101.0, 20.0 ],
					"id" : "obj-31",
					"fontname" : "Arial",
					"fontsize" : 12.0,
					"numinlets" : 3
				}

			}
, 			{
				"box" : 				{
					"maxclass" : "newobj",
					"text" : "tapin~ 1000",
					"numoutlets" : 1,
					"outlettype" : [ "tapconnect" ],
					"patching_rect" : [ 345.0, 330.0, 74.0, 20.0 ],
					"id" : "obj-32",
					"fontname" : "Arial",
					"fontsize" : 12.0,
					"numinlets" : 1
				}

			}
, 			{
				"box" : 				{
					"maxclass" : "toggle",
					"presentation_rect" : [ 915.0, 150.0, 20.0, 20.0 ],
					"numoutlets" : 1,
					"outlettype" : [ "int" ],
					"patching_rect" : [ 885.0, 1020.0, 20.0, 20.0 ],
					"presentation" : 1,
					"id" : "obj-27",
					"numinlets" : 1
				}

			}
, 			{
				"box" : 				{
					"maxclass" : "newobj",
					"text" : "dac~",
					"presentation_rect" : [ 870.0, 150.0, 37.0, 20.0 ],
					"numoutlets" : 0,
					"patching_rect" : [ 840.0, 1020.0, 37.0, 20.0 ],
					"presentation" : 1,
					"id" : "obj-22",
					"fontname" : "Arial",
					"fontsize" : 12.0,
					"numinlets" : 2
				}

			}
, 			{
				"box" : 				{
					"maxclass" : "gain~",
					"presentation_rect" : [ 525.0, 120.0, 135.0, 15.0 ],
					"numoutlets" : 2,
					"interp" : 0.0,
					"outlettype" : [ "signal", "int" ],
					"patching_rect" : [ 795.0, 975.0, 105.0, 30.0 ],
					"presentation" : 1,
					"id" : "obj-21",
					"numinlets" : 2
				}

			}
, 			{
				"box" : 				{
					"maxclass" : "newobj",
					"text" : "delay~ 4410 0",
					"numoutlets" : 1,
					"outlettype" : [ "signal" ],
					"patching_rect" : [ 435.0, 930.0, 86.0, 20.0 ],
					"id" : "obj-3",
					"fontname" : "Arial",
					"fontsize" : 12.0,
					"numinlets" : 2
				}

			}
, 			{
				"box" : 				{
					"maxclass" : "newobj",
					"text" : "delay~ 4410 0",
					"numoutlets" : 1,
					"outlettype" : [ "signal" ],
					"patching_rect" : [ 285.0, 930.0, 86.0, 20.0 ],
					"id" : "obj-2",
					"fontname" : "Arial",
					"fontsize" : 12.0,
					"numinlets" : 2
				}

			}
, 			{
				"box" : 				{
					"maxclass" : "inlet",
					"numoutlets" : 1,
					"outlettype" : [ "" ],
					"patching_rect" : [ 30.0, 90.0, 25.0, 25.0 ],
					"id" : "obj-1",
					"numinlets" : 0,
					"comment" : ""
				}

			}
, 			{
				"box" : 				{
					"maxclass" : "multislider",
					"presentation_rect" : [ 15.0, 135.0, 330.0, 90.0 ],
					"setminmax" : [ 0.0, 1000.0 ],
					"thickness" : 3,
					"numoutlets" : 2,
					"bordercolor" : [ 0.537255, 0.537255, 0.537255, 1.0 ],
					"slidercolor" : [ 1.0, 0.0, 0.0, 1.0 ],
					"ghostbar" : 23,
					"outlettype" : [ "", "" ],
					"patching_rect" : [ 240.0, 390.0, 315.0, 30.0 ],
					"presentation" : 1,
					"id" : "obj-36",
					"size" : 3,
					"orientation" : 0,
					"spacing" : 4,
					"settype" : 0,
					"numinlets" : 1,
					"bgcolor" : [ 0.0, 0.0, 0.0, 1.0 ]
				}

			}
 ],
		"lines" : [ 			{
				"patchline" : 				{
					"source" : [ "obj-8", 0 ],
					"destination" : [ "obj-98", 0 ],
					"hidden" : 0,
					"midpoints" : [  ]
				}

			}
, 			{
				"patchline" : 				{
					"source" : [ "obj-98", 0 ],
					"destination" : [ "obj-32", 0 ],
					"hidden" : 0,
					"midpoints" : [  ]
				}

			}
, 			{
				"patchline" : 				{
					"source" : [ "obj-98", 0 ],
					"destination" : [ "obj-165", 0 ],
					"hidden" : 0,
					"midpoints" : [  ]
				}

			}
, 			{
				"patchline" : 				{
					"source" : [ "obj-15", 0 ],
					"destination" : [ "obj-101", 0 ],
					"hidden" : 0,
					"midpoints" : [  ]
				}

			}
, 			{
				"patchline" : 				{
					"source" : [ "obj-100", 0 ],
					"destination" : [ "obj-99", 0 ],
					"hidden" : 0,
					"midpoints" : [  ]
				}

			}
, 			{
				"patchline" : 				{
					"source" : [ "obj-101", 0 ],
					"destination" : [ "obj-100", 0 ],
					"hidden" : 0,
					"midpoints" : [  ]
				}

			}
, 			{
				"patchline" : 				{
					"source" : [ "obj-99", 0 ],
					"destination" : [ "obj-98", 1 ],
					"hidden" : 0,
					"midpoints" : [  ]
				}

			}
, 			{
				"patchline" : 				{
					"source" : [ "obj-6", 0 ],
					"destination" : [ "obj-97", 0 ],
					"hidden" : 0,
					"midpoints" : [  ]
				}

			}
, 			{
				"patchline" : 				{
					"source" : [ "obj-97", 0 ],
					"destination" : [ "obj-166", 0 ],
					"hidden" : 0,
					"midpoints" : [  ]
				}

			}
, 			{
				"patchline" : 				{
					"source" : [ "obj-97", 0 ],
					"destination" : [ "obj-46", 0 ],
					"hidden" : 0,
					"midpoints" : [  ]
				}

			}
, 			{
				"patchline" : 				{
					"source" : [ "obj-94", 0 ],
					"destination" : [ "obj-97", 1 ],
					"hidden" : 0,
					"midpoints" : [  ]
				}

			}
, 			{
				"patchline" : 				{
					"source" : [ "obj-13", 0 ],
					"destination" : [ "obj-96", 0 ],
					"hidden" : 0,
					"midpoints" : [  ]
				}

			}
, 			{
				"patchline" : 				{
					"source" : [ "obj-96", 0 ],
					"destination" : [ "obj-95", 0 ],
					"hidden" : 0,
					"midpoints" : [  ]
				}

			}
, 			{
				"patchline" : 				{
					"source" : [ "obj-95", 0 ],
					"destination" : [ "obj-94", 0 ],
					"hidden" : 0,
					"midpoints" : [  ]
				}

			}
, 			{
				"patchline" : 				{
					"source" : [ "obj-4", 0 ],
					"destination" : [ "obj-93", 0 ],
					"hidden" : 0,
					"midpoints" : [  ]
				}

			}
, 			{
				"patchline" : 				{
					"source" : [ "obj-93", 0 ],
					"destination" : [ "obj-167", 0 ],
					"hidden" : 0,
					"midpoints" : [  ]
				}

			}
, 			{
				"patchline" : 				{
					"source" : [ "obj-93", 0 ],
					"destination" : [ "obj-47", 0 ],
					"hidden" : 0,
					"midpoints" : [  ]
				}

			}
, 			{
				"patchline" : 				{
					"source" : [ "obj-92", 0 ],
					"destination" : [ "obj-93", 1 ],
					"hidden" : 0,
					"midpoints" : [  ]
				}

			}
, 			{
				"patchline" : 				{
					"source" : [ "obj-11", 0 ],
					"destination" : [ "obj-90", 0 ],
					"hidden" : 0,
					"midpoints" : [  ]
				}

			}
, 			{
				"patchline" : 				{
					"source" : [ "obj-91", 0 ],
					"destination" : [ "obj-92", 0 ],
					"hidden" : 0,
					"midpoints" : [  ]
				}

			}
, 			{
				"patchline" : 				{
					"source" : [ "obj-90", 0 ],
					"destination" : [ "obj-91", 0 ],
					"hidden" : 0,
					"midpoints" : [  ]
				}

			}
, 			{
				"patchline" : 				{
					"source" : [ "obj-165", 0 ],
					"destination" : [ "obj-83", 0 ],
					"hidden" : 0,
					"midpoints" : [  ]
				}

			}
, 			{
				"patchline" : 				{
					"source" : [ "obj-83", 0 ],
					"destination" : [ "obj-60", 0 ],
					"hidden" : 0,
					"midpoints" : [  ]
				}

			}
, 			{
				"patchline" : 				{
					"source" : [ "obj-166", 0 ],
					"destination" : [ "obj-74", 0 ],
					"hidden" : 0,
					"midpoints" : [  ]
				}

			}
, 			{
				"patchline" : 				{
					"source" : [ "obj-74", 0 ],
					"destination" : [ "obj-69", 0 ],
					"hidden" : 0,
					"midpoints" : [  ]
				}

			}
, 			{
				"patchline" : 				{
					"source" : [ "obj-167", 0 ],
					"destination" : [ "obj-71", 0 ],
					"hidden" : 0,
					"midpoints" : [  ]
				}

			}
, 			{
				"patchline" : 				{
					"source" : [ "obj-71", 0 ],
					"destination" : [ "obj-70", 0 ],
					"hidden" : 0,
					"midpoints" : [  ]
				}

			}
, 			{
				"patchline" : 				{
					"source" : [ "obj-117", 0 ],
					"destination" : [ "obj-159", 0 ],
					"hidden" : 0,
					"midpoints" : [  ]
				}

			}
, 			{
				"patchline" : 				{
					"source" : [ "obj-117", 0 ],
					"destination" : [ "obj-134", 0 ],
					"hidden" : 0,
					"midpoints" : [  ]
				}

			}
, 			{
				"patchline" : 				{
					"source" : [ "obj-119", 0 ],
					"destination" : [ "obj-117", 0 ],
					"hidden" : 0,
					"midpoints" : [  ]
				}

			}
, 			{
				"patchline" : 				{
					"source" : [ "obj-21", 1 ],
					"destination" : [ "obj-144", 0 ],
					"hidden" : 0,
					"midpoints" : [  ]
				}

			}
, 			{
				"patchline" : 				{
					"source" : [ "obj-50", 0 ],
					"destination" : [ "obj-32", 0 ],
					"hidden" : 0,
					"midpoints" : [  ]
				}

			}
, 			{
				"patchline" : 				{
					"source" : [ "obj-47", 0 ],
					"destination" : [ "obj-31", 2 ],
					"hidden" : 0,
					"midpoints" : [  ]
				}

			}
, 			{
				"patchline" : 				{
					"source" : [ "obj-46", 0 ],
					"destination" : [ "obj-31", 1 ],
					"hidden" : 0,
					"midpoints" : [  ]
				}

			}
, 			{
				"patchline" : 				{
					"source" : [ "obj-31", 2 ],
					"destination" : [ "obj-45", 0 ],
					"hidden" : 0,
					"midpoints" : [  ]
				}

			}
, 			{
				"patchline" : 				{
					"source" : [ "obj-31", 1 ],
					"destination" : [ "obj-44", 0 ],
					"hidden" : 0,
					"midpoints" : [  ]
				}

			}
, 			{
				"patchline" : 				{
					"source" : [ "obj-31", 0 ],
					"destination" : [ "obj-43", 0 ],
					"hidden" : 0,
					"midpoints" : [  ]
				}

			}
, 			{
				"patchline" : 				{
					"source" : [ "obj-32", 0 ],
					"destination" : [ "obj-31", 0 ],
					"hidden" : 0,
					"midpoints" : [  ]
				}

			}
, 			{
				"patchline" : 				{
					"source" : [ "obj-42", 0 ],
					"destination" : [ "obj-31", 2 ],
					"hidden" : 0,
					"midpoints" : [  ]
				}

			}
, 			{
				"patchline" : 				{
					"source" : [ "obj-41", 0 ],
					"destination" : [ "obj-31", 1 ],
					"hidden" : 0,
					"midpoints" : [  ]
				}

			}
, 			{
				"patchline" : 				{
					"source" : [ "obj-40", 0 ],
					"destination" : [ "obj-31", 0 ],
					"hidden" : 0,
					"midpoints" : [  ]
				}

			}
, 			{
				"patchline" : 				{
					"source" : [ "obj-59", 0 ],
					"destination" : [ "obj-47", 0 ],
					"hidden" : 0,
					"midpoints" : [  ]
				}

			}
, 			{
				"patchline" : 				{
					"source" : [ "obj-58", 0 ],
					"destination" : [ "obj-46", 0 ],
					"hidden" : 0,
					"midpoints" : [  ]
				}

			}
, 			{
				"patchline" : 				{
					"source" : [ "obj-70", 0 ],
					"destination" : [ "obj-21", 0 ],
					"hidden" : 0,
					"midpoints" : [  ]
				}

			}
, 			{
				"patchline" : 				{
					"source" : [ "obj-70", 0 ],
					"destination" : [ "obj-89", 0 ],
					"hidden" : 0,
					"midpoints" : [  ]
				}

			}
, 			{
				"patchline" : 				{
					"source" : [ "obj-70", 0 ],
					"destination" : [ "obj-141", 0 ],
					"hidden" : 0,
					"midpoints" : [  ]
				}

			}
, 			{
				"patchline" : 				{
					"source" : [ "obj-69", 0 ],
					"destination" : [ "obj-21", 0 ],
					"hidden" : 0,
					"midpoints" : [  ]
				}

			}
, 			{
				"patchline" : 				{
					"source" : [ "obj-69", 0 ],
					"destination" : [ "obj-3", 0 ],
					"hidden" : 0,
					"midpoints" : [  ]
				}

			}
, 			{
				"patchline" : 				{
					"source" : [ "obj-69", 0 ],
					"destination" : [ "obj-141", 0 ],
					"hidden" : 0,
					"midpoints" : [  ]
				}

			}
, 			{
				"patchline" : 				{
					"source" : [ "obj-60", 0 ],
					"destination" : [ "obj-141", 0 ],
					"hidden" : 0,
					"midpoints" : [  ]
				}

			}
, 			{
				"patchline" : 				{
					"source" : [ "obj-60", 0 ],
					"destination" : [ "obj-2", 0 ],
					"hidden" : 0,
					"midpoints" : [  ]
				}

			}
, 			{
				"patchline" : 				{
					"source" : [ "obj-60", 0 ],
					"destination" : [ "obj-21", 0 ],
					"hidden" : 0,
					"midpoints" : [  ]
				}

			}
, 			{
				"patchline" : 				{
					"source" : [ "obj-34", 0 ],
					"destination" : [ "obj-33", 0 ],
					"hidden" : 0,
					"midpoints" : [  ]
				}

			}
, 			{
				"patchline" : 				{
					"source" : [ "obj-33", 0 ],
					"destination" : [ "obj-15", 0 ],
					"hidden" : 0,
					"midpoints" : [  ]
				}

			}
, 			{
				"patchline" : 				{
					"source" : [ "obj-28", 0 ],
					"destination" : [ "obj-26", 0 ],
					"hidden" : 0,
					"midpoints" : [  ]
				}

			}
, 			{
				"patchline" : 				{
					"source" : [ "obj-26", 0 ],
					"destination" : [ "obj-11", 0 ],
					"hidden" : 0,
					"midpoints" : [  ]
				}

			}
, 			{
				"patchline" : 				{
					"source" : [ "obj-30", 0 ],
					"destination" : [ "obj-29", 0 ],
					"hidden" : 0,
					"midpoints" : [  ]
				}

			}
, 			{
				"patchline" : 				{
					"source" : [ "obj-29", 0 ],
					"destination" : [ "obj-13", 0 ],
					"hidden" : 0,
					"midpoints" : [  ]
				}

			}
, 			{
				"patchline" : 				{
					"source" : [ "obj-9", 0 ],
					"destination" : [ "obj-8", 0 ],
					"hidden" : 0,
					"midpoints" : [  ]
				}

			}
, 			{
				"patchline" : 				{
					"source" : [ "obj-135", 0 ],
					"destination" : [ "obj-9", 0 ],
					"hidden" : 0,
					"midpoints" : [  ]
				}

			}
, 			{
				"patchline" : 				{
					"source" : [ "obj-14", 0 ],
					"destination" : [ "obj-8", 0 ],
					"hidden" : 0,
					"midpoints" : [  ]
				}

			}
, 			{
				"patchline" : 				{
					"source" : [ "obj-135", 0 ],
					"destination" : [ "obj-5", 0 ],
					"hidden" : 0,
					"midpoints" : [  ]
				}

			}
, 			{
				"patchline" : 				{
					"source" : [ "obj-135", 0 ],
					"destination" : [ "obj-7", 0 ],
					"hidden" : 0,
					"midpoints" : [  ]
				}

			}
, 			{
				"patchline" : 				{
					"source" : [ "obj-10", 0 ],
					"destination" : [ "obj-4", 0 ],
					"hidden" : 0,
					"midpoints" : [  ]
				}

			}
, 			{
				"patchline" : 				{
					"source" : [ "obj-12", 0 ],
					"destination" : [ "obj-6", 0 ],
					"hidden" : 0,
					"midpoints" : [  ]
				}

			}
, 			{
				"patchline" : 				{
					"source" : [ "obj-5", 0 ],
					"destination" : [ "obj-4", 0 ],
					"hidden" : 0,
					"midpoints" : [  ]
				}

			}
, 			{
				"patchline" : 				{
					"source" : [ "obj-7", 0 ],
					"destination" : [ "obj-6", 0 ],
					"hidden" : 0,
					"midpoints" : [  ]
				}

			}
, 			{
				"patchline" : 				{
					"source" : [ "obj-11", 0 ],
					"destination" : [ "obj-10", 0 ],
					"hidden" : 0,
					"midpoints" : [  ]
				}

			}
, 			{
				"patchline" : 				{
					"source" : [ "obj-13", 0 ],
					"destination" : [ "obj-12", 0 ],
					"hidden" : 0,
					"midpoints" : [  ]
				}

			}
, 			{
				"patchline" : 				{
					"source" : [ "obj-15", 0 ],
					"destination" : [ "obj-14", 0 ],
					"hidden" : 0,
					"midpoints" : [  ]
				}

			}
, 			{
				"patchline" : 				{
					"source" : [ "obj-24", 0 ],
					"destination" : [ "obj-16", 0 ],
					"hidden" : 0,
					"midpoints" : [  ]
				}

			}
, 			{
				"patchline" : 				{
					"source" : [ "obj-24", 0 ],
					"destination" : [ "obj-18", 0 ],
					"hidden" : 0,
					"midpoints" : [  ]
				}

			}
, 			{
				"patchline" : 				{
					"source" : [ "obj-24", 0 ],
					"destination" : [ "obj-20", 0 ],
					"hidden" : 0,
					"midpoints" : [  ]
				}

			}
, 			{
				"patchline" : 				{
					"source" : [ "obj-19", 0 ],
					"destination" : [ "obj-30", 0 ],
					"hidden" : 0,
					"midpoints" : [  ]
				}

			}
, 			{
				"patchline" : 				{
					"source" : [ "obj-17", 0 ],
					"destination" : [ "obj-34", 0 ],
					"hidden" : 0,
					"midpoints" : [  ]
				}

			}
, 			{
				"patchline" : 				{
					"source" : [ "obj-16", 0 ],
					"destination" : [ "obj-17", 0 ],
					"hidden" : 0,
					"midpoints" : [  ]
				}

			}
, 			{
				"patchline" : 				{
					"source" : [ "obj-18", 0 ],
					"destination" : [ "obj-19", 0 ],
					"hidden" : 0,
					"midpoints" : [  ]
				}

			}
, 			{
				"patchline" : 				{
					"source" : [ "obj-23", 0 ],
					"destination" : [ "obj-28", 0 ],
					"hidden" : 0,
					"midpoints" : [  ]
				}

			}
, 			{
				"patchline" : 				{
					"source" : [ "obj-20", 0 ],
					"destination" : [ "obj-23", 0 ],
					"hidden" : 0,
					"midpoints" : [  ]
				}

			}
, 			{
				"patchline" : 				{
					"source" : [ "obj-21", 0 ],
					"destination" : [ "obj-22", 0 ],
					"hidden" : 0,
					"midpoints" : [  ]
				}

			}
, 			{
				"patchline" : 				{
					"source" : [ "obj-27", 0 ],
					"destination" : [ "obj-22", 0 ],
					"hidden" : 0,
					"midpoints" : [  ]
				}

			}
, 			{
				"patchline" : 				{
					"source" : [ "obj-36", 0 ],
					"destination" : [ "obj-37", 0 ],
					"hidden" : 0,
					"midpoints" : [  ]
				}

			}
, 			{
				"patchline" : 				{
					"source" : [ "obj-37", 0 ],
					"destination" : [ "obj-40", 0 ],
					"hidden" : 0,
					"midpoints" : [  ]
				}

			}
, 			{
				"patchline" : 				{
					"source" : [ "obj-37", 1 ],
					"destination" : [ "obj-41", 0 ],
					"hidden" : 0,
					"midpoints" : [  ]
				}

			}
, 			{
				"patchline" : 				{
					"source" : [ "obj-37", 2 ],
					"destination" : [ "obj-42", 0 ],
					"hidden" : 0,
					"midpoints" : [  ]
				}

			}
, 			{
				"patchline" : 				{
					"source" : [ "obj-48", 0 ],
					"destination" : [ "obj-52", 0 ],
					"hidden" : 0,
					"midpoints" : [  ]
				}

			}
, 			{
				"patchline" : 				{
					"source" : [ "obj-54", 0 ],
					"destination" : [ "obj-53", 0 ],
					"hidden" : 0,
					"midpoints" : [  ]
				}

			}
, 			{
				"patchline" : 				{
					"source" : [ "obj-56", 0 ],
					"destination" : [ "obj-55", 0 ],
					"hidden" : 0,
					"midpoints" : [  ]
				}

			}
, 			{
				"patchline" : 				{
					"source" : [ "obj-52", 0 ],
					"destination" : [ "obj-43", 1 ],
					"hidden" : 0,
					"midpoints" : [  ]
				}

			}
, 			{
				"patchline" : 				{
					"source" : [ "obj-53", 0 ],
					"destination" : [ "obj-44", 1 ],
					"hidden" : 0,
					"midpoints" : [  ]
				}

			}
, 			{
				"patchline" : 				{
					"source" : [ "obj-55", 0 ],
					"destination" : [ "obj-45", 1 ],
					"hidden" : 0,
					"midpoints" : [  ]
				}

			}
, 			{
				"patchline" : 				{
					"source" : [ "obj-43", 0 ],
					"destination" : [ "obj-50", 0 ],
					"hidden" : 0,
					"midpoints" : [  ]
				}

			}
, 			{
				"patchline" : 				{
					"source" : [ "obj-44", 0 ],
					"destination" : [ "obj-58", 0 ],
					"hidden" : 0,
					"midpoints" : [  ]
				}

			}
, 			{
				"patchline" : 				{
					"source" : [ "obj-45", 0 ],
					"destination" : [ "obj-59", 0 ],
					"hidden" : 0,
					"midpoints" : [  ]
				}

			}
, 			{
				"patchline" : 				{
					"source" : [ "obj-63", 0 ],
					"destination" : [ "obj-70", 1 ],
					"hidden" : 0,
					"midpoints" : [  ]
				}

			}
, 			{
				"patchline" : 				{
					"source" : [ "obj-64", 0 ],
					"destination" : [ "obj-63", 0 ],
					"hidden" : 0,
					"midpoints" : [  ]
				}

			}
, 			{
				"patchline" : 				{
					"source" : [ "obj-65", 0 ],
					"destination" : [ "obj-69", 1 ],
					"hidden" : 0,
					"midpoints" : [  ]
				}

			}
, 			{
				"patchline" : 				{
					"source" : [ "obj-66", 0 ],
					"destination" : [ "obj-65", 0 ],
					"hidden" : 0,
					"midpoints" : [  ]
				}

			}
, 			{
				"patchline" : 				{
					"source" : [ "obj-67", 0 ],
					"destination" : [ "obj-60", 1 ],
					"hidden" : 0,
					"midpoints" : [  ]
				}

			}
, 			{
				"patchline" : 				{
					"source" : [ "obj-68", 0 ],
					"destination" : [ "obj-67", 0 ],
					"hidden" : 0,
					"midpoints" : [  ]
				}

			}
, 			{
				"patchline" : 				{
					"source" : [ "obj-81", 0 ],
					"destination" : [ "obj-80", 0 ],
					"hidden" : 0,
					"midpoints" : [  ]
				}

			}
, 			{
				"patchline" : 				{
					"source" : [ "obj-79", 0 ],
					"destination" : [ "obj-78", 0 ],
					"hidden" : 0,
					"midpoints" : [  ]
				}

			}
, 			{
				"patchline" : 				{
					"source" : [ "obj-77", 0 ],
					"destination" : [ "obj-76", 0 ],
					"hidden" : 0,
					"midpoints" : [  ]
				}

			}
, 			{
				"patchline" : 				{
					"source" : [ "obj-88", 0 ],
					"destination" : [ "obj-82", 0 ],
					"hidden" : 0,
					"midpoints" : [  ]
				}

			}
, 			{
				"patchline" : 				{
					"source" : [ "obj-80", 0 ],
					"destination" : [ "obj-2", 1 ],
					"hidden" : 0,
					"midpoints" : [  ]
				}

			}
, 			{
				"patchline" : 				{
					"source" : [ "obj-78", 0 ],
					"destination" : [ "obj-3", 1 ],
					"hidden" : 0,
					"midpoints" : [  ]
				}

			}
, 			{
				"patchline" : 				{
					"source" : [ "obj-76", 0 ],
					"destination" : [ "obj-89", 1 ],
					"hidden" : 0,
					"midpoints" : [  ]
				}

			}
, 			{
				"patchline" : 				{
					"source" : [ "obj-134", 0 ],
					"destination" : [ "obj-132", 0 ],
					"hidden" : 0,
					"midpoints" : [  ]
				}

			}
, 			{
				"patchline" : 				{
					"source" : [ "obj-132", 0 ],
					"destination" : [ "obj-135", 1 ],
					"hidden" : 0,
					"midpoints" : [  ]
				}

			}
, 			{
				"patchline" : 				{
					"source" : [ "obj-138", 0 ],
					"destination" : [ "obj-136", 0 ],
					"hidden" : 0,
					"midpoints" : [  ]
				}

			}
, 			{
				"patchline" : 				{
					"source" : [ "obj-136", 0 ],
					"destination" : [ "obj-135", 0 ],
					"hidden" : 0,
					"midpoints" : [  ]
				}

			}
, 			{
				"patchline" : 				{
					"source" : [ "obj-2", 0 ],
					"destination" : [ "obj-142", 0 ],
					"hidden" : 0,
					"midpoints" : [  ]
				}

			}
, 			{
				"patchline" : 				{
					"source" : [ "obj-3", 0 ],
					"destination" : [ "obj-142", 0 ],
					"hidden" : 0,
					"midpoints" : [  ]
				}

			}
, 			{
				"patchline" : 				{
					"source" : [ "obj-89", 0 ],
					"destination" : [ "obj-142", 0 ],
					"hidden" : 0,
					"midpoints" : [  ]
				}

			}
, 			{
				"patchline" : 				{
					"source" : [ "obj-144", 0 ],
					"destination" : [ "obj-22", 1 ],
					"hidden" : 0,
					"midpoints" : [  ]
				}

			}
, 			{
				"patchline" : 				{
					"source" : [ "obj-2", 0 ],
					"destination" : [ "obj-144", 0 ],
					"hidden" : 0,
					"midpoints" : [  ]
				}

			}
, 			{
				"patchline" : 				{
					"source" : [ "obj-3", 0 ],
					"destination" : [ "obj-144", 0 ],
					"hidden" : 0,
					"midpoints" : [  ]
				}

			}
, 			{
				"patchline" : 				{
					"source" : [ "obj-89", 0 ],
					"destination" : [ "obj-144", 0 ],
					"hidden" : 0,
					"midpoints" : [  ]
				}

			}
, 			{
				"patchline" : 				{
					"source" : [ "obj-21", 0 ],
					"destination" : [ "obj-157", 0 ],
					"hidden" : 0,
					"midpoints" : [  ]
				}

			}
, 			{
				"patchline" : 				{
					"source" : [ "obj-144", 0 ],
					"destination" : [ "obj-158", 0 ],
					"hidden" : 0,
					"midpoints" : [  ]
				}

			}
, 			{
				"patchline" : 				{
					"source" : [ "obj-159", 0 ],
					"destination" : [ "obj-164", 0 ],
					"hidden" : 0,
					"midpoints" : [  ]
				}

			}
, 			{
				"patchline" : 				{
					"source" : [ "obj-50", 0 ],
					"destination" : [ "obj-165", 1 ],
					"hidden" : 0,
					"midpoints" : [  ]
				}

			}
, 			{
				"patchline" : 				{
					"source" : [ "obj-58", 0 ],
					"destination" : [ "obj-166", 1 ],
					"hidden" : 0,
					"midpoints" : [  ]
				}

			}
, 			{
				"patchline" : 				{
					"source" : [ "obj-59", 0 ],
					"destination" : [ "obj-167", 1 ],
					"hidden" : 0,
					"midpoints" : [  ]
				}

			}
, 			{
				"patchline" : 				{
					"source" : [ "obj-87", 0 ],
					"destination" : [ "obj-76", 4 ],
					"hidden" : 0,
					"midpoints" : [  ]
				}

			}
, 			{
				"patchline" : 				{
					"source" : [ "obj-87", 0 ],
					"destination" : [ "obj-78", 4 ],
					"hidden" : 0,
					"midpoints" : [  ]
				}

			}
, 			{
				"patchline" : 				{
					"source" : [ "obj-87", 0 ],
					"destination" : [ "obj-80", 4 ],
					"hidden" : 0,
					"midpoints" : [  ]
				}

			}
, 			{
				"patchline" : 				{
					"source" : [ "obj-82", 1 ],
					"destination" : [ "obj-87", 0 ],
					"hidden" : 0,
					"midpoints" : [  ]
				}

			}
 ]
	}

}
