{
	"patcher" : 	{
		"fileversion" : 1,
		"appversion" : 		{
			"major" : 5,
			"minor" : 1,
			"revision" : 9
		}
,
		"rect" : [ 348.0, 44.0, 749.0, 527.0 ],
		"bglocked" : 0,
		"defrect" : [ 348.0, 44.0, 749.0, 527.0 ],
		"openrect" : [ 0.0, 0.0, 0.0, 0.0 ],
		"openinpresentation" : 0,
		"default_fontsize" : 12.0,
		"default_fontface" : 0,
		"default_fontname" : "Arial",
		"gridonopen" : 0,
		"gridsize" : [ 15.0, 15.0 ],
		"gridsnaponopen" : 0,
		"toolbarvisible" : 1,
		"boxanimatetime" : 200,
		"imprint" : 0,
		"enablehscroll" : 1,
		"enablevscroll" : 1,
		"devicewidth" : 0.0,
		"boxes" : [ 			{
				"box" : 				{
					"maxclass" : "newobj",
					"text" : "zl 512 reg",
					"numoutlets" : 2,
					"outlettype" : [ "", "" ],
					"patching_rect" : [ 555.0, 165.0, 63.0, 20.0 ],
					"id" : "obj-57",
					"fontname" : "Arial",
					"fontsize" : 12.0,
					"numinlets" : 2
				}

			}
, 			{
				"box" : 				{
					"maxclass" : "newobj",
					"text" : "zl 512 reg",
					"numoutlets" : 2,
					"outlettype" : [ "", "" ],
					"patching_rect" : [ 375.0, 165.0, 63.0, 20.0 ],
					"id" : "obj-58",
					"fontname" : "Arial",
					"fontsize" : 12.0,
					"numinlets" : 2
				}

			}
, 			{
				"box" : 				{
					"maxclass" : "ubutton",
					"numoutlets" : 4,
					"outlettype" : [ "bang", "bang", "", "int" ],
					"patching_rect" : [ 645.0, 105.0, 90.0, 45.0 ],
					"id" : "obj-59",
					"handoff" : "",
					"numinlets" : 1
				}

			}
, 			{
				"box" : 				{
					"maxclass" : "multislider",
					"numoutlets" : 2,
					"outlettype" : [ "", "" ],
					"patching_rect" : [ 555.0, 105.0, 90.0, 45.0 ],
					"id" : "obj-60",
					"size" : 512,
					"numinlets" : 1
				}

			}
, 			{
				"box" : 				{
					"maxclass" : "ubutton",
					"numoutlets" : 4,
					"outlettype" : [ "bang", "bang", "", "int" ],
					"patching_rect" : [ 465.0, 105.0, 90.0, 45.0 ],
					"id" : "obj-61",
					"handoff" : "",
					"numinlets" : 1
				}

			}
, 			{
				"box" : 				{
					"maxclass" : "multislider",
					"numoutlets" : 2,
					"outlettype" : [ "", "" ],
					"patching_rect" : [ 375.0, 105.0, 90.0, 45.0 ],
					"id" : "obj-62",
					"size" : 512,
					"numinlets" : 1
				}

			}
, 			{
				"box" : 				{
					"maxclass" : "newobj",
					"text" : "zl 512 reg",
					"numoutlets" : 2,
					"outlettype" : [ "", "" ],
					"patching_rect" : [ 195.0, 165.0, 63.0, 20.0 ],
					"id" : "obj-63",
					"fontname" : "Arial",
					"fontsize" : 12.0,
					"numinlets" : 2
				}

			}
, 			{
				"box" : 				{
					"maxclass" : "newobj",
					"text" : "zl 512 reg",
					"numoutlets" : 2,
					"outlettype" : [ "", "" ],
					"patching_rect" : [ 15.0, 165.0, 63.0, 20.0 ],
					"id" : "obj-64",
					"fontname" : "Arial",
					"fontsize" : 12.0,
					"numinlets" : 2
				}

			}
, 			{
				"box" : 				{
					"maxclass" : "ubutton",
					"numoutlets" : 4,
					"outlettype" : [ "bang", "bang", "", "int" ],
					"patching_rect" : [ 285.0, 105.0, 90.0, 45.0 ],
					"id" : "obj-65",
					"handoff" : "",
					"numinlets" : 1
				}

			}
, 			{
				"box" : 				{
					"maxclass" : "multislider",
					"numoutlets" : 2,
					"outlettype" : [ "", "" ],
					"patching_rect" : [ 195.0, 105.0, 90.0, 45.0 ],
					"id" : "obj-66",
					"size" : 512,
					"numinlets" : 1
				}

			}
, 			{
				"box" : 				{
					"maxclass" : "ubutton",
					"numoutlets" : 4,
					"outlettype" : [ "bang", "bang", "", "int" ],
					"patching_rect" : [ 105.0, 105.0, 90.0, 45.0 ],
					"id" : "obj-67",
					"handoff" : "",
					"numinlets" : 1
				}

			}
, 			{
				"box" : 				{
					"maxclass" : "multislider",
					"numoutlets" : 2,
					"outlettype" : [ "", "" ],
					"patching_rect" : [ 15.0, 105.0, 90.0, 45.0 ],
					"id" : "obj-68",
					"size" : 512,
					"numinlets" : 1
				}

			}
, 			{
				"box" : 				{
					"maxclass" : "newobj",
					"text" : "zl 512 reg",
					"numoutlets" : 2,
					"outlettype" : [ "", "" ],
					"patching_rect" : [ 540.0, 75.0, 63.0, 20.0 ],
					"id" : "obj-51",
					"fontname" : "Arial",
					"fontsize" : 12.0,
					"numinlets" : 2
				}

			}
, 			{
				"box" : 				{
					"maxclass" : "newobj",
					"text" : "zl 512 reg",
					"numoutlets" : 2,
					"outlettype" : [ "", "" ],
					"patching_rect" : [ 360.0, 75.0, 63.0, 20.0 ],
					"id" : "obj-52",
					"fontname" : "Arial",
					"fontsize" : 12.0,
					"numinlets" : 2
				}

			}
, 			{
				"box" : 				{
					"maxclass" : "ubutton",
					"numoutlets" : 4,
					"outlettype" : [ "bang", "bang", "", "int" ],
					"patching_rect" : [ 630.0, 15.0, 90.0, 45.0 ],
					"id" : "obj-53",
					"handoff" : "",
					"numinlets" : 1
				}

			}
, 			{
				"box" : 				{
					"maxclass" : "multislider",
					"numoutlets" : 2,
					"outlettype" : [ "", "" ],
					"patching_rect" : [ 540.0, 15.0, 90.0, 45.0 ],
					"id" : "obj-54",
					"size" : 512,
					"numinlets" : 1
				}

			}
, 			{
				"box" : 				{
					"maxclass" : "ubutton",
					"numoutlets" : 4,
					"outlettype" : [ "bang", "bang", "", "int" ],
					"patching_rect" : [ 450.0, 15.0, 90.0, 45.0 ],
					"id" : "obj-55",
					"handoff" : "",
					"numinlets" : 1
				}

			}
, 			{
				"box" : 				{
					"maxclass" : "multislider",
					"numoutlets" : 2,
					"outlettype" : [ "", "" ],
					"patching_rect" : [ 360.0, 15.0, 90.0, 45.0 ],
					"id" : "obj-56",
					"size" : 512,
					"numinlets" : 1
				}

			}
, 			{
				"box" : 				{
					"maxclass" : "newobj",
					"text" : "zl 512 reg",
					"numoutlets" : 2,
					"outlettype" : [ "", "" ],
					"patching_rect" : [ 180.0, 75.0, 63.0, 20.0 ],
					"id" : "obj-38",
					"fontname" : "Arial",
					"fontsize" : 12.0,
					"numinlets" : 2
				}

			}
, 			{
				"box" : 				{
					"maxclass" : "newobj",
					"text" : "zl 512 reg",
					"numoutlets" : 2,
					"outlettype" : [ "", "" ],
					"patching_rect" : [ 0.0, 75.0, 63.0, 20.0 ],
					"id" : "obj-37",
					"fontname" : "Arial",
					"fontsize" : 12.0,
					"numinlets" : 2
				}

			}
, 			{
				"box" : 				{
					"maxclass" : "toggle",
					"numoutlets" : 1,
					"outlettype" : [ "int" ],
					"patching_rect" : [ 390.0, 390.0, 20.0, 20.0 ],
					"id" : "obj-28",
					"numinlets" : 1
				}

			}
, 			{
				"box" : 				{
					"maxclass" : "scope~",
					"numoutlets" : 0,
					"patching_rect" : [ 555.0, 345.0, 130.0, 130.0 ],
					"id" : "obj-26",
					"numinlets" : 2
				}

			}
, 			{
				"box" : 				{
					"maxclass" : "flonum",
					"numoutlets" : 2,
					"outlettype" : [ "float", "bang" ],
					"patching_rect" : [ 375.0, 255.0, 50.0, 20.0 ],
					"id" : "obj-25",
					"fontname" : "Arial",
					"fontsize" : 12.0,
					"numinlets" : 1
				}

			}
, 			{
				"box" : 				{
					"maxclass" : "newobj",
					"text" : "phasor~",
					"numoutlets" : 1,
					"outlettype" : [ "signal" ],
					"patching_rect" : [ 375.0, 285.0, 54.0, 20.0 ],
					"id" : "obj-23",
					"fontname" : "Arial",
					"fontsize" : 12.0,
					"numinlets" : 2
				}

			}
, 			{
				"box" : 				{
					"maxclass" : "newobj",
					"text" : "*~",
					"numoutlets" : 1,
					"outlettype" : [ "signal" ],
					"patching_rect" : [ 375.0, 450.0, 33.5, 20.0 ],
					"id" : "obj-22",
					"fontname" : "Arial",
					"fontsize" : 12.0,
					"numinlets" : 2
				}

			}
, 			{
				"box" : 				{
					"maxclass" : "newobj",
					"text" : "adsr~ 10 0 1. 10",
					"numoutlets" : 4,
					"outlettype" : [ "signal", "signal", "", "" ],
					"patching_rect" : [ 390.0, 420.0, 98.0, 20.0 ],
					"id" : "obj-21",
					"fontname" : "Arial",
					"fontsize" : 12.0,
					"numinlets" : 5
				}

			}
, 			{
				"box" : 				{
					"maxclass" : "toggle",
					"numoutlets" : 1,
					"outlettype" : [ "int" ],
					"patching_rect" : [ 420.0, 450.0, 45.0, 45.0 ],
					"id" : "obj-20",
					"numinlets" : 1
				}

			}
, 			{
				"box" : 				{
					"maxclass" : "newobj",
					"text" : "dac~",
					"numoutlets" : 0,
					"patching_rect" : [ 375.0, 480.0, 37.0, 20.0 ],
					"id" : "obj-18",
					"fontname" : "Arial",
					"fontsize" : 12.0,
					"numinlets" : 2
				}

			}
, 			{
				"box" : 				{
					"maxclass" : "gain~",
					"numoutlets" : 2,
					"outlettype" : [ "signal", "int" ],
					"patching_rect" : [ 375.0, 345.0, 150.0, 30.0 ],
					"id" : "obj-17",
					"numinlets" : 2
				}

			}
, 			{
				"box" : 				{
					"maxclass" : "newobj",
					"text" : "wave~ weivfor",
					"numoutlets" : 1,
					"outlettype" : [ "signal" ],
					"patching_rect" : [ 375.0, 315.0, 87.0, 20.0 ],
					"id" : "obj-16",
					"fontname" : "Arial",
					"fontsize" : 12.0,
					"numinlets" : 3
				}

			}
, 			{
				"box" : 				{
					"maxclass" : "newobj",
					"text" : "peek~ weivfor",
					"numoutlets" : 1,
					"outlettype" : [ "float" ],
					"patching_rect" : [ 0.0, 390.0, 85.0, 20.0 ],
					"id" : "obj-15",
					"fontname" : "Arial",
					"fontsize" : 12.0,
					"numinlets" : 3
				}

			}
, 			{
				"box" : 				{
					"maxclass" : "newobj",
					"text" : "listfunnel",
					"numoutlets" : 1,
					"outlettype" : [ "list" ],
					"patching_rect" : [ 0.0, 360.0, 58.0, 20.0 ],
					"id" : "obj-14",
					"fontname" : "Arial",
					"fontsize" : 12.0,
					"numinlets" : 1
				}

			}
, 			{
				"box" : 				{
					"maxclass" : "message",
					"text" : "sizeinsamps 512",
					"numoutlets" : 1,
					"outlettype" : [ "" ],
					"patching_rect" : [ 255.0, 255.0, 100.0, 18.0 ],
					"id" : "obj-13",
					"fontname" : "Arial",
					"fontsize" : 12.0,
					"numinlets" : 2
				}

			}
, 			{
				"box" : 				{
					"maxclass" : "newobj",
					"text" : "buffer~ weivfor",
					"numoutlets" : 2,
					"outlettype" : [ "float", "bang" ],
					"patching_rect" : [ 255.0, 285.0, 89.0, 20.0 ],
					"id" : "obj-11",
					"fontname" : "Arial",
					"fontsize" : 12.0,
					"numinlets" : 1
				}

			}
, 			{
				"box" : 				{
					"maxclass" : "ubutton",
					"numoutlets" : 4,
					"outlettype" : [ "bang", "bang", "", "int" ],
					"patching_rect" : [ 270.0, 15.0, 90.0, 45.0 ],
					"id" : "obj-4",
					"handoff" : "",
					"numinlets" : 1
				}

			}
, 			{
				"box" : 				{
					"maxclass" : "multislider",
					"numoutlets" : 2,
					"outlettype" : [ "", "" ],
					"patching_rect" : [ 180.0, 15.0, 90.0, 45.0 ],
					"id" : "obj-5",
					"size" : 512,
					"numinlets" : 1
				}

			}
, 			{
				"box" : 				{
					"maxclass" : "multislider",
					"presentation_rect" : [ 274.0, 391.0, 0.0, 0.0 ],
					"numoutlets" : 2,
					"slidercolor" : [ 0.317647, 0.709804, 0.321569, 1.0 ],
					"outlettype" : [ "", "" ],
					"patching_rect" : [ 0.0, 255.0, 180.0, 90.0 ],
					"id" : "obj-3",
					"size" : 512,
					"ignoreclick" : 1,
					"numinlets" : 1,
					"bgcolor" : [ 0.0, 0.0, 0.0, 1.0 ]
				}

			}
, 			{
				"box" : 				{
					"maxclass" : "ubutton",
					"numoutlets" : 4,
					"outlettype" : [ "bang", "bang", "", "int" ],
					"patching_rect" : [ 90.0, 15.0, 90.0, 45.0 ],
					"id" : "obj-2",
					"handoff" : "",
					"numinlets" : 1
				}

			}
, 			{
				"box" : 				{
					"maxclass" : "multislider",
					"numoutlets" : 2,
					"outlettype" : [ "", "" ],
					"patching_rect" : [ 0.0, 15.0, 90.0, 45.0 ],
					"id" : "obj-1",
					"size" : 512,
					"numinlets" : 1
				}

			}
 ],
		"lines" : [ 			{
				"patchline" : 				{
					"source" : [ "obj-4", 0 ],
					"destination" : [ "obj-38", 0 ],
					"hidden" : 0,
					"midpoints" : [  ]
				}

			}
, 			{
				"patchline" : 				{
					"source" : [ "obj-5", 0 ],
					"destination" : [ "obj-38", 1 ],
					"hidden" : 0,
					"midpoints" : [  ]
				}

			}
, 			{
				"patchline" : 				{
					"source" : [ "obj-38", 0 ],
					"destination" : [ "obj-3", 0 ],
					"hidden" : 0,
					"midpoints" : [  ]
				}

			}
, 			{
				"patchline" : 				{
					"source" : [ "obj-56", 0 ],
					"destination" : [ "obj-52", 1 ],
					"hidden" : 0,
					"midpoints" : [  ]
				}

			}
, 			{
				"patchline" : 				{
					"source" : [ "obj-55", 0 ],
					"destination" : [ "obj-52", 0 ],
					"hidden" : 0,
					"midpoints" : [  ]
				}

			}
, 			{
				"patchline" : 				{
					"source" : [ "obj-54", 0 ],
					"destination" : [ "obj-51", 1 ],
					"hidden" : 0,
					"midpoints" : [  ]
				}

			}
, 			{
				"patchline" : 				{
					"source" : [ "obj-53", 0 ],
					"destination" : [ "obj-51", 0 ],
					"hidden" : 0,
					"midpoints" : [  ]
				}

			}
, 			{
				"patchline" : 				{
					"source" : [ "obj-51", 0 ],
					"destination" : [ "obj-3", 0 ],
					"hidden" : 0,
					"midpoints" : [  ]
				}

			}
, 			{
				"patchline" : 				{
					"source" : [ "obj-52", 0 ],
					"destination" : [ "obj-3", 0 ],
					"hidden" : 0,
					"midpoints" : [  ]
				}

			}
, 			{
				"patchline" : 				{
					"source" : [ "obj-59", 0 ],
					"destination" : [ "obj-57", 0 ],
					"hidden" : 0,
					"midpoints" : [  ]
				}

			}
, 			{
				"patchline" : 				{
					"source" : [ "obj-60", 0 ],
					"destination" : [ "obj-57", 1 ],
					"hidden" : 0,
					"midpoints" : [  ]
				}

			}
, 			{
				"patchline" : 				{
					"source" : [ "obj-61", 0 ],
					"destination" : [ "obj-58", 0 ],
					"hidden" : 0,
					"midpoints" : [  ]
				}

			}
, 			{
				"patchline" : 				{
					"source" : [ "obj-62", 0 ],
					"destination" : [ "obj-58", 1 ],
					"hidden" : 0,
					"midpoints" : [  ]
				}

			}
, 			{
				"patchline" : 				{
					"source" : [ "obj-68", 0 ],
					"destination" : [ "obj-64", 1 ],
					"hidden" : 0,
					"midpoints" : [  ]
				}

			}
, 			{
				"patchline" : 				{
					"source" : [ "obj-67", 0 ],
					"destination" : [ "obj-64", 0 ],
					"hidden" : 0,
					"midpoints" : [  ]
				}

			}
, 			{
				"patchline" : 				{
					"source" : [ "obj-66", 0 ],
					"destination" : [ "obj-63", 1 ],
					"hidden" : 0,
					"midpoints" : [  ]
				}

			}
, 			{
				"patchline" : 				{
					"source" : [ "obj-65", 0 ],
					"destination" : [ "obj-63", 0 ],
					"hidden" : 0,
					"midpoints" : [  ]
				}

			}
, 			{
				"patchline" : 				{
					"source" : [ "obj-64", 0 ],
					"destination" : [ "obj-3", 0 ],
					"hidden" : 0,
					"midpoints" : [  ]
				}

			}
, 			{
				"patchline" : 				{
					"source" : [ "obj-63", 0 ],
					"destination" : [ "obj-3", 0 ],
					"hidden" : 0,
					"midpoints" : [  ]
				}

			}
, 			{
				"patchline" : 				{
					"source" : [ "obj-58", 0 ],
					"destination" : [ "obj-3", 0 ],
					"hidden" : 0,
					"midpoints" : [  ]
				}

			}
, 			{
				"patchline" : 				{
					"source" : [ "obj-57", 0 ],
					"destination" : [ "obj-3", 0 ],
					"hidden" : 0,
					"midpoints" : [  ]
				}

			}
, 			{
				"patchline" : 				{
					"source" : [ "obj-25", 0 ],
					"destination" : [ "obj-23", 0 ],
					"hidden" : 0,
					"midpoints" : [  ]
				}

			}
, 			{
				"patchline" : 				{
					"source" : [ "obj-37", 0 ],
					"destination" : [ "obj-3", 0 ],
					"hidden" : 0,
					"midpoints" : [  ]
				}

			}
, 			{
				"patchline" : 				{
					"source" : [ "obj-1", 0 ],
					"destination" : [ "obj-37", 1 ],
					"hidden" : 0,
					"midpoints" : [  ]
				}

			}
, 			{
				"patchline" : 				{
					"source" : [ "obj-2", 0 ],
					"destination" : [ "obj-37", 0 ],
					"hidden" : 0,
					"midpoints" : [  ]
				}

			}
, 			{
				"patchline" : 				{
					"source" : [ "obj-28", 0 ],
					"destination" : [ "obj-21", 0 ],
					"hidden" : 0,
					"midpoints" : [  ]
				}

			}
, 			{
				"patchline" : 				{
					"source" : [ "obj-16", 0 ],
					"destination" : [ "obj-26", 0 ],
					"hidden" : 0,
					"midpoints" : [  ]
				}

			}
, 			{
				"patchline" : 				{
					"source" : [ "obj-23", 0 ],
					"destination" : [ "obj-16", 0 ],
					"hidden" : 0,
					"midpoints" : [  ]
				}

			}
, 			{
				"patchline" : 				{
					"source" : [ "obj-22", 0 ],
					"destination" : [ "obj-18", 1 ],
					"hidden" : 0,
					"midpoints" : [  ]
				}

			}
, 			{
				"patchline" : 				{
					"source" : [ "obj-22", 0 ],
					"destination" : [ "obj-18", 0 ],
					"hidden" : 0,
					"midpoints" : [  ]
				}

			}
, 			{
				"patchline" : 				{
					"source" : [ "obj-17", 0 ],
					"destination" : [ "obj-22", 0 ],
					"hidden" : 0,
					"midpoints" : [  ]
				}

			}
, 			{
				"patchline" : 				{
					"source" : [ "obj-21", 0 ],
					"destination" : [ "obj-22", 1 ],
					"hidden" : 0,
					"midpoints" : [  ]
				}

			}
, 			{
				"patchline" : 				{
					"source" : [ "obj-20", 0 ],
					"destination" : [ "obj-18", 0 ],
					"hidden" : 0,
					"midpoints" : [  ]
				}

			}
, 			{
				"patchline" : 				{
					"source" : [ "obj-16", 0 ],
					"destination" : [ "obj-17", 0 ],
					"hidden" : 0,
					"midpoints" : [  ]
				}

			}
, 			{
				"patchline" : 				{
					"source" : [ "obj-14", 0 ],
					"destination" : [ "obj-15", 0 ],
					"hidden" : 0,
					"midpoints" : [  ]
				}

			}
, 			{
				"patchline" : 				{
					"source" : [ "obj-3", 0 ],
					"destination" : [ "obj-14", 0 ],
					"hidden" : 0,
					"midpoints" : [  ]
				}

			}
, 			{
				"patchline" : 				{
					"source" : [ "obj-13", 0 ],
					"destination" : [ "obj-11", 0 ],
					"hidden" : 0,
					"midpoints" : [  ]
				}

			}
 ]
	}

}
